<mxfile host="app.diagrams.net" modified="2023-10-06T07:14:52.423Z" agent="Mozilla/5.0 (Windows NT 10.0; Win64; x64) AppleWebKit/537.36 (KHTML, like Gecko) Chrome/117.0.0.0 Safari/537.36" etag="SibtTdypPGfxcWKJVz1D" version="22.0.3" type="device">
  <diagram name="Page-1" id="zBLn5wDJ_nwDbTgyKjne">
    <mxGraphModel dx="1290" dy="613" grid="1" gridSize="10" guides="1" tooltips="1" connect="1" arrows="1" fold="1" page="1" pageScale="1" pageWidth="850" pageHeight="1100" math="0" shadow="0">
      <root>
        <mxCell id="0" />
        <mxCell id="1" parent="0" />
        <mxCell id="cH3tdMjU5lzQY30ploKg-3" value="USER" style="swimlane;whiteSpace=wrap;html=1;" parent="1" vertex="1">
          <mxGeometry x="120" y="110" width="340" height="1610" as="geometry" />
        </mxCell>
        <mxCell id="cH3tdMjU5lzQY30ploKg-4" style="edgeStyle=orthogonalEdgeStyle;rounded=0;orthogonalLoop=1;jettySize=auto;html=1;exitX=0.5;exitY=1;exitDx=0;exitDy=0;entryX=0.42;entryY=0.005;entryDx=0;entryDy=0;entryPerimeter=0;" parent="cH3tdMjU5lzQY30ploKg-3" source="cH3tdMjU5lzQY30ploKg-5" target="cH3tdMjU5lzQY30ploKg-7" edge="1">
          <mxGeometry relative="1" as="geometry" />
        </mxCell>
        <mxCell id="cH3tdMjU5lzQY30ploKg-5" value="" style="ellipse;whiteSpace=wrap;html=1;aspect=fixed;fillColor=#0D0D0D;" parent="cH3tdMjU5lzQY30ploKg-3" vertex="1">
          <mxGeometry x="50" y="40" width="20" height="20" as="geometry" />
        </mxCell>
        <mxCell id="cH3tdMjU5lzQY30ploKg-6" style="edgeStyle=orthogonalEdgeStyle;rounded=0;orthogonalLoop=1;jettySize=auto;html=1;exitX=0.75;exitY=0;exitDx=0;exitDy=0;entryX=0;entryY=0.5;entryDx=0;entryDy=0;" parent="cH3tdMjU5lzQY30ploKg-3" source="cH3tdMjU5lzQY30ploKg-7" target="cH3tdMjU5lzQY30ploKg-9" edge="1">
          <mxGeometry relative="1" as="geometry" />
        </mxCell>
        <mxCell id="cH3tdMjU5lzQY30ploKg-7" value="Navigate to system" style="rounded=1;whiteSpace=wrap;html=1;" parent="cH3tdMjU5lzQY30ploKg-3" vertex="1">
          <mxGeometry x="10" y="110" width="120" height="40" as="geometry" />
        </mxCell>
        <mxCell id="cH3tdMjU5lzQY30ploKg-8" style="edgeStyle=orthogonalEdgeStyle;rounded=0;orthogonalLoop=1;jettySize=auto;html=1;exitX=0.5;exitY=1;exitDx=0;exitDy=0;entryX=0.5;entryY=0;entryDx=0;entryDy=0;" parent="cH3tdMjU5lzQY30ploKg-3" source="cH3tdMjU5lzQY30ploKg-9" target="cH3tdMjU5lzQY30ploKg-10" edge="1">
          <mxGeometry relative="1" as="geometry">
            <Array as="points">
              <mxPoint x="200" y="180" />
              <mxPoint x="70" y="180" />
            </Array>
          </mxGeometry>
        </mxCell>
        <mxCell id="cH3tdMjU5lzQY30ploKg-9" value="Have account?" style="rhombus;whiteSpace=wrap;html=1;" parent="cH3tdMjU5lzQY30ploKg-3" vertex="1">
          <mxGeometry x="160" y="40" width="80" height="80" as="geometry" />
        </mxCell>
        <mxCell id="cH3tdMjU5lzQY30ploKg-10" value="Enter uname and passpword" style="rounded=1;whiteSpace=wrap;html=1;" parent="cH3tdMjU5lzQY30ploKg-3" vertex="1">
          <mxGeometry x="10" y="200" width="120" height="40" as="geometry" />
        </mxCell>
        <mxCell id="cH3tdMjU5lzQY30ploKg-11" value="Enter signup data" style="rounded=1;whiteSpace=wrap;html=1;" parent="cH3tdMjU5lzQY30ploKg-3" vertex="1">
          <mxGeometry x="150" y="200" width="120" height="40" as="geometry" />
        </mxCell>
        <mxCell id="cH3tdMjU5lzQY30ploKg-12" value="No" style="text;html=1;strokeColor=none;fillColor=none;align=center;verticalAlign=middle;whiteSpace=wrap;rounded=0;" parent="cH3tdMjU5lzQY30ploKg-3" vertex="1">
          <mxGeometry x="210" y="45" width="60" height="30" as="geometry" />
        </mxCell>
        <mxCell id="cH3tdMjU5lzQY30ploKg-13" value="yes" style="text;html=1;strokeColor=none;fillColor=none;align=center;verticalAlign=middle;whiteSpace=wrap;rounded=0;" parent="cH3tdMjU5lzQY30ploKg-3" vertex="1">
          <mxGeometry x="150" y="130" width="60" height="30" as="geometry" />
        </mxCell>
        <mxCell id="cH3tdMjU5lzQY30ploKg-82" style="edgeStyle=orthogonalEdgeStyle;rounded=0;orthogonalLoop=1;jettySize=auto;html=1;exitX=0.5;exitY=1;exitDx=0;exitDy=0;entryX=0.5;entryY=0;entryDx=0;entryDy=0;" parent="cH3tdMjU5lzQY30ploKg-3" source="cH3tdMjU5lzQY30ploKg-55" target="cH3tdMjU5lzQY30ploKg-79" edge="1">
          <mxGeometry relative="1" as="geometry" />
        </mxCell>
        <mxCell id="cH3tdMjU5lzQY30ploKg-55" value="send money request" style="rounded=1;whiteSpace=wrap;html=1;" parent="cH3tdMjU5lzQY30ploKg-3" vertex="1">
          <mxGeometry x="160" y="730" width="120" height="60" as="geometry" />
        </mxCell>
        <mxCell id="cH3tdMjU5lzQY30ploKg-66" style="edgeStyle=orthogonalEdgeStyle;rounded=0;orthogonalLoop=1;jettySize=auto;html=1;exitX=0;exitY=0.5;exitDx=0;exitDy=0;entryX=0.5;entryY=0;entryDx=0;entryDy=0;" parent="cH3tdMjU5lzQY30ploKg-3" source="cH3tdMjU5lzQY30ploKg-63" target="cH3tdMjU5lzQY30ploKg-65" edge="1">
          <mxGeometry relative="1" as="geometry" />
        </mxCell>
        <mxCell id="cH3tdMjU5lzQY30ploKg-63" value="receives request" style="rounded=1;whiteSpace=wrap;html=1;" parent="cH3tdMjU5lzQY30ploKg-3" vertex="1">
          <mxGeometry x="150" y="640" width="120" height="60" as="geometry" />
        </mxCell>
        <mxCell id="cH3tdMjU5lzQY30ploKg-68" value="" style="edgeStyle=orthogonalEdgeStyle;rounded=0;orthogonalLoop=1;jettySize=auto;html=1;" parent="cH3tdMjU5lzQY30ploKg-3" source="cH3tdMjU5lzQY30ploKg-65" target="cH3tdMjU5lzQY30ploKg-67" edge="1">
          <mxGeometry relative="1" as="geometry" />
        </mxCell>
        <mxCell id="cH3tdMjU5lzQY30ploKg-65" value="appprove request" style="rounded=1;whiteSpace=wrap;html=1;" parent="cH3tdMjU5lzQY30ploKg-3" vertex="1">
          <mxGeometry x="10" y="740" width="120" height="60" as="geometry" />
        </mxCell>
        <mxCell id="cH3tdMjU5lzQY30ploKg-67" value="send money to borrower" style="whiteSpace=wrap;html=1;rounded=1;" parent="cH3tdMjU5lzQY30ploKg-3" vertex="1">
          <mxGeometry x="10" y="880" width="120" height="60" as="geometry" />
        </mxCell>
        <mxCell id="cH3tdMjU5lzQY30ploKg-81" value="" style="edgeStyle=orthogonalEdgeStyle;rounded=0;orthogonalLoop=1;jettySize=auto;html=1;" parent="cH3tdMjU5lzQY30ploKg-3" source="cH3tdMjU5lzQY30ploKg-79" target="cH3tdMjU5lzQY30ploKg-80" edge="1">
          <mxGeometry relative="1" as="geometry" />
        </mxCell>
        <mxCell id="cH3tdMjU5lzQY30ploKg-79" value="is approved" style="rhombus;whiteSpace=wrap;html=1;" parent="cH3tdMjU5lzQY30ploKg-3" vertex="1">
          <mxGeometry x="170" y="820" width="80" height="80" as="geometry" />
        </mxCell>
        <mxCell id="cH3tdMjU5lzQY30ploKg-84" value="" style="edgeStyle=orthogonalEdgeStyle;rounded=0;orthogonalLoop=1;jettySize=auto;html=1;" parent="cH3tdMjU5lzQY30ploKg-3" source="cH3tdMjU5lzQY30ploKg-80" target="cH3tdMjU5lzQY30ploKg-83" edge="1">
          <mxGeometry relative="1" as="geometry" />
        </mxCell>
        <mxCell id="cH3tdMjU5lzQY30ploKg-80" value="receive money" style="rounded=1;whiteSpace=wrap;html=1;" parent="cH3tdMjU5lzQY30ploKg-3" vertex="1">
          <mxGeometry x="150" y="990" width="120" height="60" as="geometry" />
        </mxCell>
        <mxCell id="cH3tdMjU5lzQY30ploKg-86" style="edgeStyle=orthogonalEdgeStyle;rounded=0;orthogonalLoop=1;jettySize=auto;html=1;exitX=0.5;exitY=1;exitDx=0;exitDy=0;entryX=0.5;entryY=0;entryDx=0;entryDy=0;" parent="cH3tdMjU5lzQY30ploKg-3" source="cH3tdMjU5lzQY30ploKg-83" target="cH3tdMjU5lzQY30ploKg-85" edge="1">
          <mxGeometry relative="1" as="geometry" />
        </mxCell>
        <mxCell id="cH3tdMjU5lzQY30ploKg-83" value="Check return data" style="whiteSpace=wrap;html=1;rounded=1;" parent="cH3tdMjU5lzQY30ploKg-3" vertex="1">
          <mxGeometry x="150" y="1130" width="120" height="60" as="geometry" />
        </mxCell>
        <mxCell id="cH3tdMjU5lzQY30ploKg-92" value="" style="edgeStyle=orthogonalEdgeStyle;rounded=0;orthogonalLoop=1;jettySize=auto;html=1;" parent="cH3tdMjU5lzQY30ploKg-3" source="cH3tdMjU5lzQY30ploKg-85" target="cH3tdMjU5lzQY30ploKg-91" edge="1">
          <mxGeometry relative="1" as="geometry" />
        </mxCell>
        <mxCell id="cH3tdMjU5lzQY30ploKg-85" value="return money" style="rounded=1;whiteSpace=wrap;html=1;" parent="cH3tdMjU5lzQY30ploKg-3" vertex="1">
          <mxGeometry x="150" y="1250" width="120" height="60" as="geometry" />
        </mxCell>
        <mxCell id="cH3tdMjU5lzQY30ploKg-91" value="display dashboard" style="whiteSpace=wrap;html=1;rounded=1;" parent="cH3tdMjU5lzQY30ploKg-3" vertex="1">
          <mxGeometry x="350" y="1250" width="120" height="60" as="geometry" />
        </mxCell>
        <mxCell id="cH3tdMjU5lzQY30ploKg-101" value="receive notification" style="rounded=1;whiteSpace=wrap;html=1;" parent="cH3tdMjU5lzQY30ploKg-3" vertex="1">
          <mxGeometry x="130" y="1390" width="120" height="60" as="geometry" />
        </mxCell>
        <mxCell id="cH3tdMjU5lzQY30ploKg-14" value="PAISADE" style="swimlane;whiteSpace=wrap;html=1;" parent="1" vertex="1">
          <mxGeometry x="460" y="110" width="280" height="1610" as="geometry" />
        </mxCell>
        <mxCell id="cH3tdMjU5lzQY30ploKg-15" value="Create Account&amp;nbsp;" style="rounded=1;whiteSpace=wrap;html=1;" parent="cH3tdMjU5lzQY30ploKg-14" vertex="1">
          <mxGeometry x="90" y="40" width="120" height="40" as="geometry" />
        </mxCell>
        <mxCell id="cH3tdMjU5lzQY30ploKg-16" style="edgeStyle=orthogonalEdgeStyle;rounded=0;orthogonalLoop=1;jettySize=auto;html=1;exitX=0.5;exitY=1;exitDx=0;exitDy=0;entryX=0.5;entryY=0;entryDx=0;entryDy=0;" parent="cH3tdMjU5lzQY30ploKg-14" source="cH3tdMjU5lzQY30ploKg-18" target="cH3tdMjU5lzQY30ploKg-20" edge="1">
          <mxGeometry relative="1" as="geometry" />
        </mxCell>
        <mxCell id="cH3tdMjU5lzQY30ploKg-17" style="edgeStyle=orthogonalEdgeStyle;rounded=0;orthogonalLoop=1;jettySize=auto;html=1;exitX=1;exitY=0.25;exitDx=0;exitDy=0;entryX=1;entryY=0.5;entryDx=0;entryDy=0;" parent="cH3tdMjU5lzQY30ploKg-14" source="cH3tdMjU5lzQY30ploKg-18" target="cH3tdMjU5lzQY30ploKg-25" edge="1">
          <mxGeometry relative="1" as="geometry" />
        </mxCell>
        <mxCell id="cH3tdMjU5lzQY30ploKg-18" value="Save data" style="rounded=1;whiteSpace=wrap;html=1;" parent="cH3tdMjU5lzQY30ploKg-14" vertex="1">
          <mxGeometry x="90" y="200" width="120" height="40" as="geometry" />
        </mxCell>
        <mxCell id="cH3tdMjU5lzQY30ploKg-19" style="edgeStyle=orthogonalEdgeStyle;rounded=0;orthogonalLoop=1;jettySize=auto;html=1;exitX=0.5;exitY=1;exitDx=0;exitDy=0;entryX=0.5;entryY=0;entryDx=0;entryDy=0;" parent="cH3tdMjU5lzQY30ploKg-14" source="cH3tdMjU5lzQY30ploKg-20" target="cH3tdMjU5lzQY30ploKg-22" edge="1">
          <mxGeometry relative="1" as="geometry" />
        </mxCell>
        <mxCell id="cH3tdMjU5lzQY30ploKg-20" value="Validation" style="rounded=1;whiteSpace=wrap;html=1;" parent="cH3tdMjU5lzQY30ploKg-14" vertex="1">
          <mxGeometry x="90" y="270" width="120" height="50" as="geometry" />
        </mxCell>
        <mxCell id="cH3tdMjU5lzQY30ploKg-21" style="edgeStyle=orthogonalEdgeStyle;rounded=0;orthogonalLoop=1;jettySize=auto;html=1;exitX=0.5;exitY=1;exitDx=0;exitDy=0;entryX=0.5;entryY=0;entryDx=0;entryDy=0;" parent="cH3tdMjU5lzQY30ploKg-14" source="cH3tdMjU5lzQY30ploKg-22" target="cH3tdMjU5lzQY30ploKg-25" edge="1">
          <mxGeometry relative="1" as="geometry" />
        </mxCell>
        <mxCell id="cH3tdMjU5lzQY30ploKg-22" value="valid?" style="rhombus;whiteSpace=wrap;html=1;" parent="cH3tdMjU5lzQY30ploKg-14" vertex="1">
          <mxGeometry x="110" y="370" width="80" height="80" as="geometry" />
        </mxCell>
        <mxCell id="cH3tdMjU5lzQY30ploKg-23" value="No" style="text;html=1;strokeColor=none;fillColor=none;align=center;verticalAlign=middle;whiteSpace=wrap;rounded=0;" parent="cH3tdMjU5lzQY30ploKg-14" vertex="1">
          <mxGeometry x="30" y="380" width="60" height="30" as="geometry" />
        </mxCell>
        <mxCell id="sCL16QilqETM9_8wd9ty-2" style="edgeStyle=orthogonalEdgeStyle;rounded=0;orthogonalLoop=1;jettySize=auto;html=1;exitX=0.5;exitY=1;exitDx=0;exitDy=0;entryX=0.5;entryY=0;entryDx=0;entryDy=0;" edge="1" parent="cH3tdMjU5lzQY30ploKg-14" source="cH3tdMjU5lzQY30ploKg-25" target="cH3tdMjU5lzQY30ploKg-57">
          <mxGeometry relative="1" as="geometry" />
        </mxCell>
        <mxCell id="cH3tdMjU5lzQY30ploKg-25" value="Display Dashboard" style="rounded=1;whiteSpace=wrap;html=1;" parent="cH3tdMjU5lzQY30ploKg-14" vertex="1">
          <mxGeometry x="90" y="530" width="120" height="40" as="geometry" />
        </mxCell>
        <mxCell id="cH3tdMjU5lzQY30ploKg-27" value="yes" style="text;html=1;strokeColor=none;fillColor=none;align=center;verticalAlign=middle;whiteSpace=wrap;rounded=0;" parent="cH3tdMjU5lzQY30ploKg-14" vertex="1">
          <mxGeometry x="140" y="465" width="60" height="30" as="geometry" />
        </mxCell>
        <mxCell id="cH3tdMjU5lzQY30ploKg-60" style="edgeStyle=orthogonalEdgeStyle;rounded=0;orthogonalLoop=1;jettySize=auto;html=1;exitX=0.25;exitY=1;exitDx=0;exitDy=0;entryX=0.5;entryY=0;entryDx=0;entryDy=0;" parent="cH3tdMjU5lzQY30ploKg-14" source="cH3tdMjU5lzQY30ploKg-57" target="cH3tdMjU5lzQY30ploKg-58" edge="1">
          <mxGeometry relative="1" as="geometry" />
        </mxCell>
        <mxCell id="cH3tdMjU5lzQY30ploKg-61" style="edgeStyle=orthogonalEdgeStyle;rounded=0;orthogonalLoop=1;jettySize=auto;html=1;exitX=0.75;exitY=1;exitDx=0;exitDy=0;entryX=0.5;entryY=0;entryDx=0;entryDy=0;" parent="cH3tdMjU5lzQY30ploKg-14" source="cH3tdMjU5lzQY30ploKg-57" target="cH3tdMjU5lzQY30ploKg-46" edge="1">
          <mxGeometry relative="1" as="geometry" />
        </mxCell>
        <mxCell id="cH3tdMjU5lzQY30ploKg-57" value="" style="rounded=0;whiteSpace=wrap;html=1;fillColor=#000000;" parent="cH3tdMjU5lzQY30ploKg-14" vertex="1">
          <mxGeometry x="110" y="580" width="80" height="10" as="geometry" />
        </mxCell>
        <mxCell id="cH3tdMjU5lzQY30ploKg-46" value="if borrower?" style="rhombus;whiteSpace=wrap;html=1;" parent="cH3tdMjU5lzQY30ploKg-14" vertex="1">
          <mxGeometry x="149" y="630" width="80" height="80" as="geometry" />
        </mxCell>
        <mxCell id="cH3tdMjU5lzQY30ploKg-58" value="if lender?" style="rhombus;whiteSpace=wrap;html=1;" parent="cH3tdMjU5lzQY30ploKg-14" vertex="1">
          <mxGeometry x="60" y="630" width="80" height="80" as="geometry" />
        </mxCell>
        <mxCell id="cH3tdMjU5lzQY30ploKg-52" value="yes" style="text;html=1;strokeColor=none;fillColor=none;align=center;verticalAlign=middle;whiteSpace=wrap;rounded=0;" parent="cH3tdMjU5lzQY30ploKg-14" vertex="1">
          <mxGeometry x="140" y="710" width="60" height="30" as="geometry" />
        </mxCell>
        <mxCell id="cH3tdMjU5lzQY30ploKg-88" value="" style="edgeStyle=orthogonalEdgeStyle;rounded=0;orthogonalLoop=1;jettySize=auto;html=1;" parent="cH3tdMjU5lzQY30ploKg-14" source="cH3tdMjU5lzQY30ploKg-71" target="cH3tdMjU5lzQY30ploKg-87" edge="1">
          <mxGeometry relative="1" as="geometry" />
        </mxCell>
        <mxCell id="cH3tdMjU5lzQY30ploKg-71" value="Display dashboard" style="whiteSpace=wrap;html=1;rounded=1;" parent="cH3tdMjU5lzQY30ploKg-14" vertex="1">
          <mxGeometry x="129" y="880" width="120" height="60" as="geometry" />
        </mxCell>
        <mxCell id="cH3tdMjU5lzQY30ploKg-87" value="" style="shape=waypoint;sketch=0;size=6;pointerEvents=1;points=[];fillColor=default;resizable=0;rotatable=0;perimeter=centerPerimeter;snapToPoint=1;rounded=1;" parent="cH3tdMjU5lzQY30ploKg-14" vertex="1">
          <mxGeometry x="179" y="1040" width="20" height="20" as="geometry" />
        </mxCell>
        <mxCell id="cH3tdMjU5lzQY30ploKg-100" value="" style="edgeStyle=orthogonalEdgeStyle;rounded=0;orthogonalLoop=1;jettySize=auto;html=1;" parent="cH3tdMjU5lzQY30ploKg-14" source="cH3tdMjU5lzQY30ploKg-89" target="cH3tdMjU5lzQY30ploKg-99" edge="1">
          <mxGeometry relative="1" as="geometry" />
        </mxCell>
        <mxCell id="cH3tdMjU5lzQY30ploKg-89" value="date miss&amp;nbsp;" style="rhombus;whiteSpace=wrap;html=1;" parent="cH3tdMjU5lzQY30ploKg-14" vertex="1">
          <mxGeometry x="159" y="1140" width="80" height="80" as="geometry" />
        </mxCell>
        <mxCell id="cH3tdMjU5lzQY30ploKg-97" value="" style="shape=waypoint;sketch=0;size=6;pointerEvents=1;points=[];fillColor=default;resizable=0;rotatable=0;perimeter=centerPerimeter;snapToPoint=1;rounded=1;" parent="cH3tdMjU5lzQY30ploKg-14" vertex="1">
          <mxGeometry x="60" y="1410" width="20" height="20" as="geometry" />
        </mxCell>
        <mxCell id="cH3tdMjU5lzQY30ploKg-99" value="send notification" style="rounded=1;whiteSpace=wrap;html=1;" parent="cH3tdMjU5lzQY30ploKg-14" vertex="1">
          <mxGeometry x="139" y="1310" width="120" height="60" as="geometry" />
        </mxCell>
        <mxCell id="cH3tdMjU5lzQY30ploKg-28" style="edgeStyle=orthogonalEdgeStyle;rounded=0;orthogonalLoop=1;jettySize=auto;html=1;exitX=1;exitY=0.5;exitDx=0;exitDy=0;entryX=0;entryY=0.25;entryDx=0;entryDy=0;" parent="1" source="cH3tdMjU5lzQY30ploKg-9" target="cH3tdMjU5lzQY30ploKg-15" edge="1">
          <mxGeometry relative="1" as="geometry">
            <Array as="points">
              <mxPoint x="370" y="200" />
              <mxPoint x="370" y="170" />
            </Array>
          </mxGeometry>
        </mxCell>
        <mxCell id="cH3tdMjU5lzQY30ploKg-29" style="edgeStyle=orthogonalEdgeStyle;rounded=0;orthogonalLoop=1;jettySize=auto;html=1;exitX=0.5;exitY=1;exitDx=0;exitDy=0;entryX=0.75;entryY=0;entryDx=0;entryDy=0;" parent="1" source="cH3tdMjU5lzQY30ploKg-15" target="cH3tdMjU5lzQY30ploKg-11" edge="1">
          <mxGeometry relative="1" as="geometry" />
        </mxCell>
        <mxCell id="cH3tdMjU5lzQY30ploKg-30" style="edgeStyle=orthogonalEdgeStyle;rounded=0;orthogonalLoop=1;jettySize=auto;html=1;exitX=1;exitY=0.5;exitDx=0;exitDy=0;entryX=0;entryY=0.5;entryDx=0;entryDy=0;" parent="1" source="cH3tdMjU5lzQY30ploKg-11" target="cH3tdMjU5lzQY30ploKg-18" edge="1">
          <mxGeometry relative="1" as="geometry" />
        </mxCell>
        <mxCell id="cH3tdMjU5lzQY30ploKg-31" style="edgeStyle=orthogonalEdgeStyle;rounded=0;orthogonalLoop=1;jettySize=auto;html=1;exitX=0.5;exitY=1;exitDx=0;exitDy=0;entryX=0;entryY=0.5;entryDx=0;entryDy=0;" parent="1" source="cH3tdMjU5lzQY30ploKg-10" target="cH3tdMjU5lzQY30ploKg-20" edge="1">
          <mxGeometry relative="1" as="geometry" />
        </mxCell>
        <mxCell id="cH3tdMjU5lzQY30ploKg-32" style="edgeStyle=orthogonalEdgeStyle;rounded=0;orthogonalLoop=1;jettySize=auto;html=1;exitX=0;exitY=0.5;exitDx=0;exitDy=0;entryX=0.25;entryY=1;entryDx=0;entryDy=0;" parent="1" source="cH3tdMjU5lzQY30ploKg-22" target="cH3tdMjU5lzQY30ploKg-10" edge="1">
          <mxGeometry relative="1" as="geometry" />
        </mxCell>
        <mxCell id="cH3tdMjU5lzQY30ploKg-62" style="edgeStyle=orthogonalEdgeStyle;rounded=0;orthogonalLoop=1;jettySize=auto;html=1;exitX=0.5;exitY=1;exitDx=0;exitDy=0;entryX=1;entryY=0.5;entryDx=0;entryDy=0;" parent="1" source="cH3tdMjU5lzQY30ploKg-46" target="cH3tdMjU5lzQY30ploKg-55" edge="1">
          <mxGeometry relative="1" as="geometry" />
        </mxCell>
        <mxCell id="cH3tdMjU5lzQY30ploKg-64" value="" style="edgeStyle=orthogonalEdgeStyle;rounded=0;orthogonalLoop=1;jettySize=auto;html=1;" parent="1" source="cH3tdMjU5lzQY30ploKg-58" target="cH3tdMjU5lzQY30ploKg-63" edge="1">
          <mxGeometry relative="1" as="geometry" />
        </mxCell>
        <mxCell id="cH3tdMjU5lzQY30ploKg-72" value="" style="edgeStyle=orthogonalEdgeStyle;rounded=0;orthogonalLoop=1;jettySize=auto;html=1;" parent="1" source="cH3tdMjU5lzQY30ploKg-67" target="cH3tdMjU5lzQY30ploKg-71" edge="1">
          <mxGeometry relative="1" as="geometry" />
        </mxCell>
        <mxCell id="cH3tdMjU5lzQY30ploKg-90" style="edgeStyle=orthogonalEdgeStyle;rounded=0;orthogonalLoop=1;jettySize=auto;html=1;exitX=1;exitY=0.5;exitDx=0;exitDy=0;entryX=0.5;entryY=0;entryDx=0;entryDy=0;" parent="1" source="cH3tdMjU5lzQY30ploKg-83" target="cH3tdMjU5lzQY30ploKg-89" edge="1">
          <mxGeometry relative="1" as="geometry" />
        </mxCell>
        <mxCell id="cH3tdMjU5lzQY30ploKg-98" value="" style="edgeStyle=orthogonalEdgeStyle;rounded=0;orthogonalLoop=1;jettySize=auto;html=1;" parent="1" source="cH3tdMjU5lzQY30ploKg-91" target="cH3tdMjU5lzQY30ploKg-97" edge="1">
          <mxGeometry relative="1" as="geometry" />
        </mxCell>
        <mxCell id="cH3tdMjU5lzQY30ploKg-102" value="" style="edgeStyle=orthogonalEdgeStyle;rounded=0;orthogonalLoop=1;jettySize=auto;html=1;" parent="1" source="cH3tdMjU5lzQY30ploKg-99" target="cH3tdMjU5lzQY30ploKg-101" edge="1">
          <mxGeometry relative="1" as="geometry">
            <Array as="points">
              <mxPoint x="659" y="1540" />
            </Array>
          </mxGeometry>
        </mxCell>
        <mxCell id="cH3tdMjU5lzQY30ploKg-103" value="" style="shape=waypoint;sketch=0;size=6;pointerEvents=1;points=[];fillColor=default;resizable=0;rotatable=0;perimeter=centerPerimeter;snapToPoint=1;rounded=1;" parent="1" vertex="1">
          <mxGeometry x="300" y="1660" width="20" height="20" as="geometry" />
        </mxCell>
        <mxCell id="cH3tdMjU5lzQY30ploKg-104" value="" style="edgeStyle=orthogonalEdgeStyle;rounded=0;orthogonalLoop=1;jettySize=auto;html=1;" parent="1" source="cH3tdMjU5lzQY30ploKg-101" target="cH3tdMjU5lzQY30ploKg-103" edge="1">
          <mxGeometry relative="1" as="geometry" />
        </mxCell>
      </root>
    </mxGraphModel>
  </diagram>
</mxfile>
